<svg width="49" height="30" viewBox="0 0 49 30" fill="none" xmlns="http://www.w3.org/2000/svg">
<path d="M3.672 8.804H1.548C1.308 8.804 1.104 8.732 0.936 8.588C0.792 8.42 0.72 8.216 0.72 7.976C0.72 7.736 0.792 7.532 0.936 7.364C1.104 7.196 1.308 7.112 1.548 7.112H17.46C18.084 7.112 18.396 7.4 18.396 7.976V10.928C18.396 11.168 18.3 11.372 18.108 11.54C17.916 11.684 17.688 11.756 17.424 11.756C17.16 11.756 16.932 11.684 16.74 11.54C16.548 11.372 16.452 11.168 16.452 10.928V8.804H5.616V17.156H14.724V15.824C14.724 15.584 14.808 15.392 14.976 15.248C15.168 15.08 15.396 14.996 15.66 14.996C15.924 14.996 16.14 15.08 16.308 15.248C16.5 15.392 16.596 15.584 16.596 15.824V20.216C16.596 20.456 16.5 20.66 16.308 20.828C16.14 20.972 15.924 21.044 15.66 21.044C15.396 21.044 15.168 20.972 14.976 20.828C14.808 20.66 14.724 20.456 14.724 20.216V18.848H5.616V28.532C5.616 28.772 5.52 28.964 5.328 29.108C5.136 29.276 4.908 29.36 4.644 29.36C4.38 29.36 4.152 29.276 3.96 29.108C3.768 28.964 3.672 28.772 3.672 28.532V8.804Z" fill="white"/>
<path d="M28.7815 25.8582L28.7851 25.8594L27.4811 28.1324C27.0052 28.9621 25.9509 29.2463 25.1265 28.7673C24.3021 28.2883 24.0196 27.2273 24.4956 26.3976L25.4562 24.7232L25.5484 24.5625C25.713 24.3243 26.1193 23.9134 26.932 23.9906C26.932 23.9906 28.8444 24.1995 28.9828 25.1998C28.9828 25.1998 29.0017 25.529 28.7815 25.8582V25.8582ZM47.2763 20.0527H43.21C42.9332 20.0341 42.8122 19.9345 42.7647 19.8767L42.7617 19.8714L38.4089 12.2839L38.4033 12.2877L38.1422 11.911C37.7144 11.2526 37.035 12.9366 37.035 12.9366C36.2239 14.8131 37.1501 16.9466 37.4731 17.5914L43.5189 28.13C43.9948 28.9597 45.049 29.244 45.8735 28.7649C46.6978 28.286 46.9803 27.225 46.5044 26.3953L44.9925 23.76C44.9633 23.6962 44.9123 23.5228 45.2223 23.5221H47.2763C48.2283 23.5221 49 22.7455 49 21.7874C49 20.8294 48.2283 20.0527 47.2763 20.0527ZM39.3783 22.411C39.3783 22.411 39.5954 23.5221 38.7555 23.5221H37.9157V23.5221H23.7237C22.7717 23.5221 22 22.7455 22 21.7874C22 20.8294 22.7717 20.0527 23.7237 20.0527H27.5882C28.2121 20.0163 28.3601 19.6539 28.3601 19.6539L28.3634 19.6556L33.4079 10.8624L33.4064 10.8621C33.4984 10.6922 33.4218 10.5317 33.4085 10.5063L31.7426 7.60235C31.2666 6.77266 31.5491 5.71171 32.3735 5.2327C33.1979 4.75366 34.2521 5.03795 34.7281 5.86764L35.5007 7.21448L36.272 5.87004C36.7479 5.04034 37.8021 4.75606 38.6266 5.2351C39.451 5.71414 39.7335 6.77509 39.2575 7.60475L32.2379 19.8407C32.2072 19.9152 32.1978 20.0321 32.4262 20.0527H36.6221L36.623 20.0939C36.623 20.0939 39.0481 20.1318 39.3783 22.411Z" fill="#4897F4"/>
</svg>
