<svg width="41" height="23" viewBox="0 0 41 23" fill="none" xmlns="http://www.w3.org/2000/svg">
<path d="M3.672 1.804H1.548C1.308 1.804 1.104 1.732 0.936 1.588C0.792 1.42 0.72 1.216 0.72 0.975998C0.72 0.735998 0.792 0.531999 0.936 0.364C1.104 0.195999 1.308 0.111999 1.548 0.111999H17.46C18.084 0.111999 18.396 0.399998 18.396 0.975998V3.928C18.396 4.168 18.3 4.372 18.108 4.54C17.916 4.684 17.688 4.756 17.424 4.756C17.16 4.756 16.932 4.684 16.74 4.54C16.548 4.372 16.452 4.168 16.452 3.928V1.804H5.616V10.156H14.724V8.824C14.724 8.584 14.808 8.392 14.976 8.248C15.168 8.08 15.396 7.996 15.66 7.996C15.924 7.996 16.14 8.08 16.308 8.248C16.5 8.392 16.596 8.584 16.596 8.824V13.216C16.596 13.456 16.5 13.66 16.308 13.828C16.14 13.972 15.924 14.044 15.66 14.044C15.396 14.044 15.168 13.972 14.976 13.828C14.808 13.66 14.724 13.456 14.724 13.216V11.848H5.616V21.532C5.616 21.772 5.52 21.964 5.328 22.108C5.136 22.276 4.908 22.36 4.644 22.36C4.38 22.36 4.152 22.276 3.96 22.108C3.768 21.964 3.672 21.772 3.672 21.532V1.804ZM29.3752 2.668L24.1552 13.468H34.6312L29.3752 2.668ZM26.3152 0.111999H29.5192C29.9032 0.111999 30.1672 0.255999 30.3112 0.543999L40.4992 21.136C40.5472 21.232 40.5712 21.34 40.5712 21.46C40.5712 21.868 40.3792 22.144 39.9952 22.288C39.8512 22.336 39.7192 22.36 39.5992 22.36C39.1912 22.36 38.9152 22.204 38.7712 21.892L35.4232 15.124H23.3632L20.0152 21.892C19.7992 22.372 19.3912 22.504 18.7912 22.288C18.4072 22.144 18.2152 21.88 18.2152 21.496C18.2152 21.4 18.2392 21.292 18.2872 21.172L27.8632 1.804H26.3152C26.0752 1.804 25.8712 1.732 25.7032 1.588C25.5592 1.42 25.4872 1.216 25.4872 0.975998C25.4872 0.735998 25.5592 0.531999 25.7032 0.364C25.8712 0.195999 26.0752 0.111999 26.3152 0.111999Z" fill="#6366F1"/>
</svg>
