<svg width="150" height="42" viewBox="0 0 150 42" fill="none" xmlns="http://www.w3.org/2000/svg">
<path d="M3.672 8.804H1.548C1.308 8.804 1.104 8.732 0.936 8.588C0.792 8.42 0.72 8.216 0.72 7.976C0.72 7.736 0.792 7.532 0.936 7.364C1.104 7.196 1.308 7.112 1.548 7.112H17.46C18.084 7.112 18.396 7.4 18.396 7.976V10.928C18.396 11.168 18.3 11.372 18.108 11.54C17.916 11.684 17.688 11.756 17.424 11.756C17.16 11.756 16.932 11.684 16.74 11.54C16.548 11.372 16.452 11.168 16.452 10.928V8.804H5.616V17.156H14.724V15.824C14.724 15.584 14.808 15.392 14.976 15.248C15.168 15.08 15.396 14.996 15.66 14.996C15.924 14.996 16.14 15.08 16.308 15.248C16.5 15.392 16.596 15.584 16.596 15.824V20.216C16.596 20.456 16.5 20.66 16.308 20.828C16.14 20.972 15.924 21.044 15.66 21.044C15.396 21.044 15.168 20.972 14.976 20.828C14.808 20.66 14.724 20.456 14.724 20.216V18.848H5.616V28.532C5.616 28.772 5.52 28.964 5.328 29.108C5.136 29.276 4.908 29.36 4.644 29.36C4.38 29.36 4.152 29.276 3.96 29.108C3.768 28.964 3.672 28.772 3.672 28.532V8.804Z" fill="white"/>
<path d="M55.704 21.056H57.408C58.512 21.056 59.336 20.792 59.88 20.264C60.424 19.736 60.696 19.024 60.696 18.128C60.696 17.248 60.424 16.56 59.88 16.064C59.336 15.552 58.536 15.296 57.48 15.296H55.704V21.056ZM52.68 12.824H57.744C59.568 12.824 61.024 13.32 62.112 14.312C63.216 15.304 63.768 16.576 63.768 18.128C63.768 19.776 63.2 21.088 62.064 22.064C60.944 23.024 59.528 23.504 57.816 23.504H55.704V29H52.68V12.824ZM71.1039 29.192C69.2639 29.192 67.8239 28.616 66.7839 27.464C65.7599 26.312 65.2479 24.84 65.2479 23.048C65.2479 21.192 65.7839 19.664 66.8559 18.464C67.9279 17.248 69.3439 16.64 71.1039 16.64C72.9759 16.64 74.4239 17.232 75.4479 18.416C76.4719 19.584 76.9839 21.072 76.9839 22.88C76.9839 24.72 76.4639 26.232 75.4239 27.416C74.3999 28.6 72.9599 29.192 71.1039 29.192ZM71.1039 18.992C70.1919 18.992 69.4879 19.368 68.9919 20.12C68.5119 20.872 68.2719 21.816 68.2719 22.952C68.2719 24.072 68.5199 25.008 69.0159 25.76C69.5119 26.512 70.2159 26.888 71.1279 26.888C72.0719 26.888 72.7839 26.52 73.2639 25.784C73.7439 25.048 73.9839 24.112 73.9839 22.976C73.9839 21.808 73.7519 20.856 73.2879 20.12C72.8239 19.368 72.0959 18.992 71.1039 18.992ZM82.3463 16.832V18.992C82.9063 17.488 83.9303 16.736 85.4183 16.736C85.7543 16.736 86.0263 16.76 86.2343 16.808V19.592C85.8663 19.432 85.4583 19.352 85.0103 19.352C84.2263 19.352 83.5863 19.672 83.0903 20.312C82.5943 20.952 82.3463 21.752 82.3463 22.712V29H79.4423L79.4663 16.832H82.3463ZM91.4312 18.992V25.184C91.4312 25.696 91.5672 26.088 91.8392 26.36C92.1112 26.616 92.4872 26.744 92.9672 26.744C93.5752 26.744 94.1352 26.576 94.6472 26.24V28.712C94.0872 28.984 93.3672 29.12 92.4872 29.12C89.8632 29.12 88.5512 27.792 88.5512 25.136V18.992H86.7272V16.832H88.5512V13.904H91.4312V16.832H94.4552V18.992H91.4312ZM97.1409 29V16.832H100.021V29H97.1409ZM96.8529 13.184C96.8529 12.704 97.0209 12.296 97.3569 11.96C97.6929 11.624 98.1009 11.456 98.5809 11.456C99.0609 11.456 99.4689 11.624 99.8049 11.96C100.141 12.296 100.309 12.704 100.309 13.184C100.309 13.68 100.141 14.096 99.8049 14.432C99.4689 14.768 99.0609 14.936 98.5809 14.936C98.1009 14.936 97.6929 14.768 97.3569 14.432C97.0209 14.096 96.8529 13.68 96.8529 13.184ZM110.023 11.984V14.408C109.607 14.248 109.207 14.168 108.823 14.168C107.655 14.168 107.071 14.824 107.071 16.136V16.832H109.495V18.992H107.071V29H104.191V18.992H102.415V16.832H104.191V16.112C104.191 14.752 104.567 13.688 105.319 12.92C106.071 12.152 107.111 11.768 108.439 11.768C109.047 11.768 109.575 11.84 110.023 11.984ZM115.708 15.656L117.892 11.6H120.916L118.132 15.656H115.708ZM116.62 29.192C114.78 29.192 113.34 28.616 112.3 27.464C111.276 26.312 110.764 24.84 110.764 23.048C110.764 21.192 111.3 19.664 112.372 18.464C113.444 17.248 114.86 16.64 116.62 16.64C118.492 16.64 119.94 17.232 120.964 18.416C121.988 19.584 122.5 21.072 122.5 22.88C122.5 24.72 121.98 26.232 120.94 27.416C119.916 28.6 118.476 29.192 116.62 29.192ZM116.62 18.992C115.708 18.992 115.004 19.368 114.508 20.12C114.028 20.872 113.788 21.816 113.788 22.952C113.788 24.072 114.036 25.008 114.532 25.76C115.028 26.512 115.732 26.888 116.644 26.888C117.588 26.888 118.3 26.52 118.78 25.784C119.26 25.048 119.5 24.112 119.5 22.976C119.5 21.808 119.268 20.856 118.804 20.12C118.34 19.368 117.612 18.992 116.62 18.992ZM125.102 29V12.032H127.982V29H125.102ZM131.336 29V16.832H134.216V29H131.336ZM131.048 13.184C131.048 12.704 131.216 12.296 131.552 11.96C131.888 11.624 132.296 11.456 132.776 11.456C133.256 11.456 133.664 11.624 134 11.96C134.336 12.296 134.504 12.704 134.504 13.184C134.504 13.68 134.336 14.096 134 14.432C133.664 14.768 133.256 14.936 132.776 14.936C132.296 14.936 131.888 14.768 131.552 14.432C131.216 14.096 131.048 13.68 131.048 13.184ZM142.659 29.192C140.819 29.192 139.379 28.616 138.339 27.464C137.315 26.312 136.803 24.84 136.803 23.048C136.803 21.192 137.339 19.664 138.411 18.464C139.483 17.248 140.899 16.64 142.659 16.64C144.531 16.64 145.979 17.232 147.003 18.416C148.027 19.584 148.539 21.072 148.539 22.88C148.539 24.72 148.019 26.232 146.979 27.416C145.955 28.6 144.515 29.192 142.659 29.192ZM142.659 18.992C141.747 18.992 141.043 19.368 140.547 20.12C140.067 20.872 139.827 21.816 139.827 22.952C139.827 24.072 140.075 25.008 140.571 25.76C141.067 26.512 141.771 26.888 142.683 26.888C143.627 26.888 144.339 26.52 144.819 25.784C145.299 25.048 145.539 24.112 145.539 22.976C145.539 21.808 145.307 20.856 144.843 20.12C144.379 19.368 143.651 18.992 142.659 18.992Z" fill="white"/>
<path d="M27.7815 25.8582L27.7851 25.8594L26.4811 28.1324C26.0052 28.9621 24.9509 29.2463 24.1265 28.7673C23.3021 28.2883 23.0196 27.2273 23.4956 26.3976L24.4562 24.7232L24.5484 24.5625C24.713 24.3243 25.1193 23.9134 25.932 23.9906C25.932 23.9906 27.8444 24.1995 27.9828 25.1998C27.9828 25.1998 28.0017 25.529 27.7815 25.8582V25.8582ZM46.2763 20.0527H42.21C41.9332 20.0341 41.8122 19.9345 41.7647 19.8767L41.7617 19.8714L37.4089 12.2839L37.4033 12.2877L37.1422 11.911C36.7144 11.2526 36.035 12.9366 36.035 12.9366C35.2239 14.8131 36.1501 16.9466 36.4731 17.5914L42.5189 28.13C42.9948 28.9597 44.049 29.244 44.8735 28.7649C45.6978 28.286 45.9803 27.225 45.5044 26.3953L43.9925 23.76C43.9633 23.6962 43.9123 23.5228 44.2223 23.5221H46.2763C47.2283 23.5221 48 22.7455 48 21.7874C48 20.8294 47.2283 20.0527 46.2763 20.0527ZM38.3783 22.411C38.3783 22.411 38.5954 23.5221 37.7555 23.5221H36.9157V23.5221H22.7237C21.7717 23.5221 21 22.7455 21 21.7874C21 20.8294 21.7717 20.0527 22.7237 20.0527H26.5882C27.2121 20.0163 27.3601 19.6539 27.3601 19.6539L27.3634 19.6556L32.4079 10.8624L32.4064 10.8621C32.4984 10.6922 32.4218 10.5317 32.4085 10.5063L30.7426 7.60235C30.2666 6.77266 30.5491 5.71171 31.3735 5.2327C32.1979 4.75366 33.2521 5.03795 33.7281 5.86764L34.5007 7.21448L35.272 5.87004C35.7479 5.04034 36.8021 4.75606 37.6266 5.2351C38.451 5.71414 38.7335 6.77509 38.2575 7.60475L31.2379 19.8407C31.2072 19.9152 31.1978 20.0321 31.4262 20.0527H35.6221L35.623 20.0939C35.623 20.0939 38.0481 20.1318 38.3783 22.411Z" fill="#4897F4"/>
</svg>
