<svg width="123" height="50" viewBox="0 0 123 50" fill="none" xmlns="http://www.w3.org/2000/svg">
<g clip-path="url(#clip0_425_2)">
<path d="M17.2488 28.6551C9.72543 28.6551 3.60375 23.0384 3.60375 16.1409C3.60375 9.24339 9.72543 3.62585 17.2488 3.62585H35.6138V1.48714C35.6138 1.09729 35.4571 0.72341 35.178 0.447745C34.899 0.172079 34.5206 0.0172119 34.126 0.0172119H17.314C7.76608 0.0172119 0 7.25426 0 16.1572C0 25.0602 7.76608 32.2955 17.314 32.2955H34.126C34.5206 32.2955 34.899 32.1406 35.178 31.865C35.4571 31.5893 35.6138 31.2154 35.6138 30.8256V28.6516H17.2488V28.6551Z" fill="#ED193F"/>
<path d="M17.314 8.83076H34.126C34.5205 8.83031 34.8986 8.67529 35.1775 8.39973C35.4564 8.12416 35.6133 7.75054 35.6138 7.36083V5.14734H17.2488C10.5755 5.14734 5.14026 10.0781 5.14026 16.14C5.14026 22.202 10.572 27.1361 17.2488 27.1361H35.6138V24.9579C35.6138 24.568 35.457 24.1941 35.178 23.9185C34.899 23.6428 34.5206 23.4879 34.126 23.4879H17.314C12.6836 23.4879 8.92063 20.2017 8.92063 16.1581C8.92063 12.1145 12.6871 8.83076 17.314 8.83076V8.83076Z" fill="#ED193F"/>
<path d="M76.5445 0H74.1231V25.4711C74.1228 25.5448 74.103 25.6171 74.0655 25.6809C74.028 25.7446 73.9743 25.7975 73.9097 25.8344C73.845 25.8712 73.7717 25.8906 73.6971 25.8906C73.6225 25.8907 73.5492 25.8714 73.4845 25.8347L44.9468 9.38263C44.8823 9.34508 44.8088 9.32513 44.7338 9.32479C44.6589 9.32445 44.5853 9.34374 44.5203 9.3807C44.4554 9.41766 44.4016 9.47097 44.3643 9.53518C44.3271 9.5994 44.3077 9.67222 44.3082 9.74624V32.3316H46.7496C47.0148 32.3316 47.2692 32.2277 47.4571 32.0428C47.6449 31.8578 47.7509 31.6068 47.7519 31.3448V15.2495L76.0364 31.8657C76.2249 31.9745 76.4441 32.0199 76.661 31.9953C76.878 31.9707 77.081 31.8772 77.2396 31.729C77.3375 31.6373 77.4154 31.5267 77.4685 31.4042C77.5216 31.2817 77.5488 31.1497 77.5485 31.0164V0.990269C77.5478 0.727545 77.4418 0.475803 77.2536 0.290189C77.0654 0.104576 76.8104 0.000226581 76.5445 0V0Z" fill="#ED193F"/>
<path d="M42.7656 7.10037C42.7652 7.02648 42.7846 6.95379 42.8218 6.8897C42.859 6.82561 42.9128 6.77239 42.9775 6.73546C43.0423 6.69852 43.1158 6.67919 43.1906 6.67942C43.2654 6.67964 43.3388 6.69943 43.4034 6.73675L71.9463 23.1888C72.0109 23.2261 72.0843 23.2458 72.1591 23.246C72.2339 23.2462 72.3075 23.2269 72.3723 23.19C72.4371 23.1531 72.4909 23.0999 72.5282 23.0358C72.5656 22.9718 72.5851 22.8991 72.5849 22.8252V0H70.0913C69.8257 0.000680746 69.5712 0.105231 69.3833 0.290795C69.1955 0.476359 69.0897 0.727843 69.089 0.990269V17.1062L40.9098 0.601726C40.7558 0.510302 40.5796 0.461875 40.4 0.46161C40.1343 0.462291 39.8798 0.566841 39.692 0.752405C39.5042 0.937969 39.3983 1.18945 39.3977 1.45188V31.2803C39.3926 31.4275 39.4199 31.5741 39.4778 31.7099C39.5356 31.8457 39.6226 31.9675 39.7327 32.0668C39.8427 32.1662 39.9733 32.2408 40.1154 32.2855C40.2575 32.3301 40.4077 32.3438 40.5557 32.3256H42.7682V7.10037H42.7656Z" fill="#ED193F"/>
<path d="M113.26 25.214C113.227 25.1616 113.181 25.1184 113.126 25.0883C113.071 25.0582 113.01 25.0423 112.947 25.0421H91.097C91.035 25.0428 90.9742 25.059 90.9202 25.089C90.8663 25.1191 90.8208 25.1621 90.7881 25.214L86.2969 32.3075H89.6814C89.8332 32.3082 89.9828 32.2705 90.1157 32.198C90.2487 32.1255 90.3606 32.0205 90.4409 31.8932L93.0511 27.7877L110.865 27.7739L113.529 31.9001C113.61 32.0262 113.722 32.13 113.855 32.2019C113.988 32.2737 114.137 32.3112 114.288 32.311H117.801L113.26 25.214Z" fill="#ED193F"/>
<path d="M122.854 30.9373L103.025 0.431527C102.945 0.307688 102.834 0.205594 102.704 0.134445C102.574 0.063296 102.427 0.0253283 102.278 0.0239639C102.129 0.0225995 101.982 0.0578812 101.851 0.126629C101.719 0.195377 101.606 0.295431 101.524 0.417773L80.7825 30.9236C80.6912 31.057 80.6384 31.2124 80.6299 31.3732C80.6214 31.534 80.6574 31.6941 80.7341 31.8362C80.8108 31.9783 80.9253 32.097 81.0652 32.1796C81.2051 32.2622 81.3652 32.3056 81.5281 32.305H84.4654L101.807 5.51353C101.841 5.46245 101.887 5.42047 101.941 5.39142C101.995 5.36236 102.056 5.34715 102.118 5.34715C102.18 5.34715 102.24 5.36236 102.295 5.39142C102.349 5.42047 102.395 5.46245 102.429 5.51353L119.649 32.3007H122.101C122.261 32.2992 122.418 32.2556 122.556 32.1741C122.693 32.0927 122.806 31.9765 122.883 31.8375C122.96 31.6985 122.997 31.5417 122.992 31.3835C122.987 31.2252 122.939 31.0712 122.854 30.9373Z" fill="#ED193F"/>
<path fill-rule="evenodd" clip-rule="evenodd" d="M111.811 22.9593L102.419 8.36146C102.385 8.31037 102.339 8.2684 102.285 8.23934C102.231 8.21029 102.17 8.19507 102.108 8.19507C102.047 8.19507 101.986 8.21029 101.932 8.23934C101.877 8.2684 101.831 8.31037 101.798 8.36146L92.2629 22.9559C92.2272 23.0107 92.2072 23.074 92.2049 23.139C92.2025 23.2041 92.218 23.2686 92.2496 23.3258C92.2812 23.3829 92.3277 23.4306 92.3844 23.4638C92.4411 23.4971 92.5058 23.5146 92.5717 23.5146H111.499C111.565 23.5151 111.629 23.4981 111.686 23.4654C111.743 23.4326 111.79 23.3854 111.822 23.3285C111.854 23.2717 111.87 23.2075 111.868 23.1425C111.866 23.0775 111.846 23.0143 111.811 22.9593V22.9593ZM105.62 20.1458H98.6656C98.5882 20.1459 98.5122 20.1256 98.4455 20.087C98.3787 20.0485 98.3236 19.993 98.2857 19.9263C98.2479 19.8597 98.2287 19.7843 98.2302 19.7079C98.2316 19.6315 98.2537 19.5569 98.294 19.4917L101.679 14.0632C101.718 14.0022 101.771 13.9516 101.835 13.9163C101.898 13.8809 101.97 13.8618 102.042 13.8608C102.115 13.8598 102.187 13.8768 102.252 13.9104C102.316 13.944 102.371 13.993 102.411 14.0529L105.984 19.4814C106.026 19.5462 106.051 19.6212 106.054 19.6984C106.057 19.7757 106.039 19.8524 106.002 19.9205C105.965 19.9885 105.909 20.0454 105.842 20.085C105.775 20.1247 105.698 20.1457 105.62 20.1458V20.1458Z" fill="#ED193F"/>
<path d="M10.5607 36.8995C10.7884 36.8996 11.0111 36.9661 11.2007 37.0909C11.3902 37.2156 11.5382 37.393 11.626 37.6006C11.7137 37.8082 11.7374 38.0369 11.694 38.2578C11.6505 38.4787 11.542 38.6819 11.3819 38.842C11.2218 39.0021 11.0174 39.1118 10.7943 39.1573C10.5713 39.2029 10.3396 39.1822 10.1284 39.098C9.91722 39.0138 9.73596 38.8697 9.60744 38.6839C9.47892 38.4982 9.40888 38.279 9.40613 38.054C9.40417 37.903 9.43259 37.7531 9.48975 37.6131C9.5469 37.4731 9.63165 37.3456 9.73907 37.2382C9.84649 37.1308 9.97443 37.0456 10.1155 36.9874C10.2565 36.9293 10.4079 36.8994 10.5607 36.8995V36.8995ZM9.63147 47.1461V40.2993H11.5047V47.1461H9.63147ZM15.3303 47.1452H13.4571V40.2984H15.2746V41.1486C15.4906 40.8215 15.7881 40.5548 16.1386 40.3741C16.489 40.1935 16.8806 40.1049 17.2757 40.1171C18.9958 40.1171 19.7832 41.3265 19.7832 42.8308V47.1452H17.9109V43.1515C17.9353 42.9749 17.9198 42.7952 17.8654 42.6253C17.811 42.4554 17.7191 42.2996 17.5963 42.1691C17.4735 42.0385 17.3229 41.9366 17.1554 41.8706C16.9878 41.8045 16.8076 41.7761 16.6276 41.7873C16.4453 41.7875 16.265 41.8254 16.0985 41.8985C15.9319 41.9717 15.7828 42.0786 15.6605 42.2122C15.5383 42.3458 15.4458 42.5033 15.3889 42.6744C15.332 42.8455 15.3121 43.0264 15.3303 43.2056V47.1461V47.1452ZM22.9154 47.0773C22.975 47.4527 23.1733 47.793 23.4721 48.0322C23.7708 48.2715 24.1488 48.3929 24.5328 48.3727C25.7152 48.3727 26.3782 47.7865 26.3782 46.4678V45.9676C26.1582 46.2626 25.8662 46.4979 25.5294 46.6515C25.1926 46.8051 24.8219 46.872 24.4519 46.8461C24.0154 46.849 23.5828 46.7638 23.1808 46.5957C22.7787 46.4277 22.4156 46.1804 22.1137 45.8688C21.8117 45.5573 21.5773 45.1882 21.4248 44.7841C21.2723 44.3799 21.2048 43.9493 21.2266 43.5185C21.2094 43.0882 21.2798 42.6588 21.4338 42.2558C21.5878 41.8529 21.8222 41.4847 22.123 41.173C22.4239 40.8613 22.7851 40.6126 23.1852 40.4415C23.5852 40.2704 24.016 40.1806 24.4519 40.1772C24.8358 40.1383 25.223 40.2047 25.5711 40.3691C25.9193 40.5335 26.2148 40.7895 26.4252 41.109V40.3002H28.2288V46.4103C28.2719 46.8926 28.2075 47.3784 28.04 47.8335C27.8726 48.2885 27.6062 48.7018 27.2597 49.0442C26.9131 49.3866 26.4948 49.6498 26.0342 49.8152C25.5736 49.9806 25.0819 50.0443 24.5937 50.0017C23.8241 50.0608 23.0588 49.8423 22.4396 49.3869C21.8204 48.9314 21.3892 48.2697 21.2258 47.5243L22.9154 47.0773ZM26.4113 43.5134C26.39 43.195 26.2748 42.8897 26.0799 42.6352C25.885 42.3808 25.6189 42.1883 25.3145 42.0816C25.0101 41.9749 24.6808 41.9587 24.3671 42.0349C24.0535 42.111 23.7693 42.2763 23.5497 42.5103C23.3301 42.7443 23.1846 43.0367 23.1313 43.3514C23.078 43.6661 23.1192 43.9894 23.2498 44.2812C23.3804 44.5731 23.5947 44.8208 23.8661 44.9937C24.1376 45.1665 24.4544 45.2571 24.7773 45.2541C25.0042 45.2583 25.2294 45.2152 25.4382 45.1275C25.647 45.0398 25.8347 44.9095 25.9891 44.7452C26.1434 44.5809 26.2609 44.3862 26.3338 44.1739C26.4067 43.9617 26.4334 43.7366 26.4121 43.5134H26.4113ZM30.1403 47.1452V37.0672H32.0135V47.1452H30.1403ZM42.9979 44.8905C43.01 45.0421 43.0526 45.1899 43.1234 45.325C43.1941 45.4601 43.2915 45.5799 43.4097 45.6773C43.528 45.7747 43.6648 45.8478 43.8121 45.8921C43.9594 45.9365 44.1142 45.9513 44.2673 45.9357C44.8886 45.9357 45.1826 45.6168 45.1826 45.2541C45.1826 44.9489 44.9712 44.6988 44.437 44.5862L43.5217 44.3773C42.9989 44.3341 42.5108 44.1011 42.1515 43.7233C41.7923 43.3455 41.5873 42.8497 41.5763 42.3314C41.5952 42.0154 41.6776 41.7063 41.8185 41.422C41.9595 41.1377 42.1562 40.8839 42.3973 40.6754C42.6384 40.4669 42.919 40.3078 43.2228 40.2074C43.5267 40.1069 43.8477 40.0672 44.1673 40.0904C46.1406 40.0904 46.8035 41.3308 46.8862 42.0675L45.3201 42.4174C45.2881 42.1477 45.151 41.901 44.9378 41.7295C44.7247 41.5581 44.4524 41.4755 44.1786 41.4993C43.6861 41.4993 43.2903 41.7907 43.2903 42.181C43.2903 42.5171 43.5435 42.7225 43.9254 42.7947L44.9103 43.0036C46.2772 43.2813 46.9671 44.1039 46.9671 45.1045C46.9671 46.222 46.0971 47.3593 44.276 47.3593C42.1879 47.3593 41.4736 46.0226 41.3866 45.2446L42.9979 44.8905ZM59.2714 45.9082C59.2714 46.3673 59.2992 46.8676 59.327 47.1452H57.5373C57.492 46.8837 57.4688 46.6189 57.4677 46.3535C57.2572 46.668 56.9665 46.9222 56.6251 47.0906C56.2836 47.259 55.9033 47.3356 55.5223 47.3128C54.607 47.2487 53.7497 46.846 53.1217 46.1851C52.4936 45.5241 52.1408 44.6534 52.1338 43.7468C52.1268 42.8402 52.466 41.9643 53.0837 41.2939C53.7015 40.6235 54.5524 40.2079 55.4666 40.1299C55.8406 40.0827 56.2205 40.1369 56.5656 40.2866C56.9108 40.4364 57.2082 40.6761 57.426 40.9801V37.0706H59.2714V45.9082ZM55.7511 45.6581C55.9979 45.6523 56.2406 45.5953 56.4636 45.4908C56.6866 45.3863 56.8848 45.2365 57.0454 45.0514C57.206 44.8662 57.3253 44.6497 57.3957 44.416C57.4661 44.1823 57.4859 43.9365 57.4538 43.6947C57.4838 43.4563 57.4621 43.2143 57.3902 42.9847C57.3184 42.7552 57.198 42.5433 57.037 42.3632C56.876 42.1831 56.6781 42.0388 56.4564 41.94C56.2347 41.8411 55.9943 41.79 55.7511 41.7899C55.2757 41.851 54.8391 42.081 54.5227 42.4369C54.2064 42.7928 54.0319 43.2503 54.0319 43.724C54.0319 44.1976 54.2064 44.6551 54.5227 45.011C54.8391 45.3669 55.2757 45.5969 55.7511 45.6581V45.6581ZM67.5264 45.1819C67.3209 45.84 66.8986 46.4112 66.3266 46.8049C65.7546 47.1985 65.0659 47.3918 64.3699 47.3541C63.4256 47.3294 62.527 46.9471 61.8601 46.2863C61.1931 45.6254 60.8086 44.7366 60.7863 43.8036C60.7639 42.8706 61.1054 41.9648 61.74 41.2735C62.3746 40.5822 63.2538 40.1584 64.1958 40.0895C66.3362 40.0895 67.6195 41.44 67.6195 43.6397C67.6195 43.9036 67.5917 44.1813 67.5917 44.2122H62.6324C62.6608 44.6465 62.8599 45.0525 63.1871 45.3438C63.5143 45.6351 63.9437 45.7886 64.3838 45.7716C64.7276 45.7985 65.0705 45.7099 65.357 45.5202C65.6435 45.3305 65.8567 45.0507 65.9621 44.7263L67.5264 45.1819ZM65.7759 42.9409C65.7736 42.7484 65.7305 42.5586 65.6493 42.3836C65.5681 42.2086 65.4506 42.0525 65.3045 41.9252C65.1583 41.7979 64.9868 41.7023 64.8009 41.6447C64.615 41.587 64.419 41.5685 64.2254 41.5904C63.841 41.5762 63.4658 41.7084 63.1772 41.9597C62.8887 42.211 62.7089 42.5623 62.675 42.9409H65.7759ZM71.4695 39.5454V40.2959H73.0356V41.8801H71.4695V47.1401H69.5823V41.8801H68.4278V40.2933H69.5823V39.5196C69.5545 39.1829 69.6003 38.8441 69.7165 38.5264C69.8327 38.2086 70.0167 37.9192 70.2559 37.6778C70.4952 37.4364 70.7841 37.2485 71.1032 37.127C71.4223 37.0055 71.7641 36.9531 72.1055 36.9735C72.4212 36.9653 72.7358 37.0127 73.0347 37.1136V38.6729C72.8412 38.6224 72.6414 38.5992 72.4413 38.6041C72.3119 38.59 72.1808 38.6044 72.0577 38.6465C71.9346 38.6885 71.8225 38.757 71.7295 38.8471C71.6365 38.9372 71.5649 39.0466 71.5199 39.1673C71.475 39.2881 71.4577 39.4173 71.4695 39.5454V39.5454ZM75.2777 36.8995C75.5054 36.8996 75.7281 36.9661 75.9177 37.0909C76.1072 37.2156 76.2552 37.393 76.343 37.6006C76.4307 37.8082 76.4544 38.0369 76.411 38.2578C76.3675 38.4787 76.259 38.6819 76.0989 38.842C75.9388 39.0021 75.7344 39.1118 75.5113 39.1573C75.2883 39.2029 75.0566 39.1822 74.8454 39.098C74.6342 39.0138 74.453 38.8697 74.3244 38.6839C74.1959 38.4982 74.1259 38.279 74.1231 38.054C74.1212 37.903 74.1496 37.7531 74.2068 37.6131C74.2639 37.4731 74.3487 37.3456 74.4561 37.2382C74.5635 37.1308 74.6914 37.0456 74.8325 36.9874C74.9735 36.9293 75.1249 36.8994 75.2777 36.8995V36.8995ZM74.3485 47.1461V40.2993H76.2217V47.1461H74.3485ZM80.0473 47.1452H78.1741V40.2984H79.9916V41.1486C80.2079 40.8218 80.5055 40.5553 80.8559 40.3747C81.2063 40.1941 81.5977 40.1054 81.9927 40.1171C83.7128 40.1171 84.5002 41.3265 84.5002 42.8308V47.1452H82.627V43.1515C82.6515 42.9749 82.6359 42.7952 82.5815 42.6253C82.5271 42.4554 82.4352 42.2996 82.3124 42.1691C82.1896 42.0385 82.039 41.9366 81.8715 41.8706C81.704 41.8045 81.5237 41.7761 81.3437 41.7873C81.1614 41.7875 80.9812 41.8254 80.8146 41.8985C80.6481 41.9717 80.4989 42.0786 80.3767 42.2122C80.2545 42.3458 80.1619 42.5033 80.1051 42.6744C80.0482 42.8455 80.0282 43.0264 80.0464 43.2056L80.0473 47.1452ZM87.3201 36.8995C87.5478 36.8996 87.7705 36.9661 87.96 37.0909C88.1496 37.2156 88.2976 37.393 88.3853 37.6006C88.4731 37.8082 88.4968 38.0369 88.4534 38.2578C88.4099 38.4787 88.3013 38.6819 88.1413 38.842C87.9812 39.0021 87.7768 39.1118 87.5537 39.1573C87.3307 39.2029 87.099 39.1822 86.8878 39.098C86.6766 39.0138 86.4953 38.8697 86.3668 38.6839C86.2383 38.4982 86.1683 38.279 86.1655 38.054C86.1634 37.903 86.1918 37.7531 86.2489 37.613C86.306 37.4729 86.3907 37.3454 86.4982 37.238C86.6056 37.1305 86.7336 37.0453 86.8747 36.9872C87.0158 36.9291 87.1672 36.8993 87.3201 36.8995V36.8995ZM86.3909 47.1461V40.2993H88.2641V47.1461H86.3909ZM92.5543 40.2993H93.9464V41.9411H92.5543V44.8097C92.5543 45.4114 92.8353 45.6048 93.373 45.6048C93.5676 45.6065 93.7618 45.588 93.9525 45.5498V47.0816C93.6143 47.2057 93.2551 47.2641 92.8945 47.2535C92.6037 47.2816 92.3102 47.2467 92.0345 47.1512C91.7588 47.0557 91.5076 46.9019 91.2982 46.7006C91.0889 46.4992 90.9265 46.2552 90.8225 45.9855C90.7184 45.7157 90.6752 45.4268 90.6959 45.1389V41.9523H89.4395V40.3105H89.7875C89.9336 40.3217 90.0804 40.3011 90.2175 40.25C90.3546 40.199 90.4787 40.1188 90.581 40.0151C90.6832 39.9115 90.7612 39.7869 90.8093 39.6501C90.8574 39.5134 90.8745 39.3679 90.8594 39.2239V38.2603H92.5482V40.2993H92.5543ZM96.4104 36.8995C96.6381 36.8996 96.8608 36.9661 97.0503 37.0909C97.2399 37.2156 97.3879 37.393 97.4756 37.6006C97.5634 37.8082 97.5871 38.0369 97.5436 38.2578C97.5002 38.4787 97.3916 38.6819 97.2315 38.842C97.0715 39.0021 96.8671 39.1118 96.644 39.1573C96.421 39.2029 96.1893 39.1822 95.9781 39.098C95.7669 39.0138 95.5856 38.8697 95.4571 38.6839C95.3286 38.4982 95.2585 38.279 95.2558 38.054C95.2538 37.903 95.2823 37.7531 95.3394 37.6131C95.3966 37.4731 95.4813 37.3456 95.5887 37.2382C95.6962 37.1308 95.8241 37.0456 95.9651 36.9874C96.1062 36.9293 96.2575 36.8994 96.4104 36.8995V36.8995ZM95.482 47.1461V40.2993H97.3552V47.1461H95.482ZM103.212 47.1461H101.339L98.5089 40.2993H100.566L102.286 44.8913L103.934 40.2993H105.907L103.212 47.1461ZM113.594 43.7223C113.586 44.4308 113.365 45.121 112.961 45.7062C112.557 46.2913 111.986 46.7452 111.321 47.0108C110.656 47.2763 109.927 47.3415 109.224 47.1983C108.522 47.0551 107.878 46.7099 107.374 46.206C106.87 45.7021 106.528 45.0621 106.391 44.3666C106.254 43.6711 106.328 42.9511 106.605 42.2972C106.881 41.6434 107.347 41.0849 107.944 40.6921C108.541 40.2992 109.242 40.0896 109.959 40.0895C110.443 40.079 110.924 40.1661 111.372 40.3454C111.821 40.5248 112.228 40.7927 112.568 41.1327C112.908 41.4727 113.175 41.8777 113.351 42.323C113.527 42.7682 113.61 43.2444 113.594 43.7223V43.7223ZM111.721 43.7223C111.682 43.3864 111.546 43.0687 111.329 42.8075C111.111 42.5464 110.822 42.3529 110.496 42.2505C110.17 42.148 109.821 42.141 109.491 42.2302C109.161 42.3194 108.864 42.501 108.636 42.7532C108.408 43.0054 108.259 43.3173 108.207 43.6513C108.154 43.9854 108.201 44.3273 108.34 44.6359C108.48 44.9444 108.707 45.2064 108.995 45.3902C109.282 45.574 109.617 45.6718 109.959 45.6718C110.208 45.6708 110.455 45.6179 110.682 45.5167C110.909 45.4156 111.113 45.2683 111.279 45.0845C111.445 44.9007 111.57 44.6844 111.646 44.4497C111.722 44.2151 111.748 43.9672 111.721 43.7223ZM34.5593 39.4629H36.2237L37.0068 38.4176L37.8081 39.4629H39.5142L38.1787 37.6947H35.9001L34.5593 39.4629ZM40.3791 43.6406C40.3791 41.4409 39.0957 40.0904 36.9554 40.0904C36.0134 40.1592 35.1342 40.5831 34.4996 41.2744C33.865 41.9656 33.5235 42.8714 33.5459 43.8044C33.5682 44.7374 33.9526 45.6263 34.6196 46.2871C35.2866 46.948 36.1852 47.3303 37.1294 47.355C37.8256 47.3934 38.5147 47.2004 39.0869 46.8067C39.659 46.4129 40.0812 45.8412 40.286 45.1827L38.7199 44.7237C38.6145 45.0481 38.4013 45.3279 38.1148 45.5176C37.8284 45.7074 37.4854 45.7959 37.1416 45.769C36.7023 45.7845 36.2741 45.6303 35.9478 45.3393C35.6216 45.0482 35.4228 44.643 35.3937 44.2097H40.353C40.3512 44.1821 40.3791 43.9045 40.3791 43.6406V43.6406ZM35.4328 42.9417C35.4667 42.5631 35.6465 42.2119 35.9351 41.9606C36.2236 41.7092 36.5989 41.577 36.9833 41.5913C37.1768 41.5694 37.3729 41.5879 37.5587 41.6455C37.7446 41.7032 37.9162 41.7987 38.0623 41.926C38.2084 42.0533 38.3259 42.2095 38.4071 42.3844C38.4883 42.5594 38.5314 42.7493 38.5337 42.9417H35.4328Z" fill="#2C307B"/>
</g>
<defs>
<clipPath id="clip0_425_2">
<rect width="123" height="50" fill="white"/>
</clipPath>
</defs>
</svg>
