<svg width="143" height="42" viewBox="0 0 143 42" fill="none" xmlns="http://www.w3.org/2000/svg">
<path d="M3.672 8.804H1.548C1.308 8.804 1.104 8.732 0.936 8.588C0.792 8.42 0.72 8.216 0.72 7.976C0.72 7.736 0.792 7.532 0.936 7.364C1.104 7.196 1.308 7.112 1.548 7.112H17.46C18.084 7.112 18.396 7.4 18.396 7.976V10.928C18.396 11.168 18.3 11.372 18.108 11.54C17.916 11.684 17.688 11.756 17.424 11.756C17.16 11.756 16.932 11.684 16.74 11.54C16.548 11.372 16.452 11.168 16.452 10.928V8.804H5.616V17.156H14.724V15.824C14.724 15.584 14.808 15.392 14.976 15.248C15.168 15.08 15.396 14.996 15.66 14.996C15.924 14.996 16.14 15.08 16.308 15.248C16.5 15.392 16.596 15.584 16.596 15.824V20.216C16.596 20.456 16.5 20.66 16.308 20.828C16.14 20.972 15.924 21.044 15.66 21.044C15.396 21.044 15.168 20.972 14.976 20.828C14.808 20.66 14.724 20.456 14.724 20.216V18.848H5.616V28.532C5.616 28.772 5.52 28.964 5.328 29.108C5.136 29.276 4.908 29.36 4.644 29.36C4.38 29.36 4.152 29.276 3.96 29.108C3.768 28.964 3.672 28.772 3.672 28.532V8.804ZM29.3752 9.668L24.1552 20.468H34.6312L29.3752 9.668ZM26.3152 7.112H29.5192C29.9032 7.112 30.1672 7.256 30.3112 7.544L40.4992 28.136C40.5472 28.232 40.5712 28.34 40.5712 28.46C40.5712 28.868 40.3792 29.144 39.9952 29.288C39.8512 29.336 39.7192 29.36 39.5992 29.36C39.1912 29.36 38.9152 29.204 38.7712 28.892L35.4232 22.124H23.3632L20.0152 28.892C19.7992 29.372 19.3912 29.504 18.7912 29.288C18.4072 29.144 18.2152 28.88 18.2152 28.496C18.2152 28.4 18.2392 28.292 18.2872 28.172L27.8632 8.804H26.3152C26.0752 8.804 25.8712 8.732 25.7032 8.588C25.5592 8.42 25.4872 8.216 25.4872 7.976C25.4872 7.736 25.5592 7.532 25.7032 7.364C25.8712 7.196 26.0752 7.112 26.3152 7.112Z" fill="#6366F1"/>
<path d="M48.704 21.056H50.408C51.512 21.056 52.336 20.792 52.88 20.264C53.424 19.736 53.696 19.024 53.696 18.128C53.696 17.248 53.424 16.56 52.88 16.064C52.336 15.552 51.536 15.296 50.48 15.296H48.704V21.056ZM45.68 12.824H50.744C52.568 12.824 54.024 13.32 55.112 14.312C56.216 15.304 56.768 16.576 56.768 18.128C56.768 19.776 56.2 21.088 55.064 22.064C53.944 23.024 52.528 23.504 50.816 23.504H48.704V29H45.68V12.824ZM64.1039 29.192C62.2639 29.192 60.8239 28.616 59.7839 27.464C58.7599 26.312 58.2479 24.84 58.2479 23.048C58.2479 21.192 58.7839 19.664 59.8559 18.464C60.9279 17.248 62.3439 16.64 64.1039 16.64C65.9759 16.64 67.4239 17.232 68.4479 18.416C69.4719 19.584 69.9839 21.072 69.9839 22.88C69.9839 24.72 69.4639 26.232 68.4239 27.416C67.3999 28.6 65.9599 29.192 64.1039 29.192ZM64.1039 18.992C63.1919 18.992 62.4879 19.368 61.9919 20.12C61.5119 20.872 61.2719 21.816 61.2719 22.952C61.2719 24.072 61.5199 25.008 62.0159 25.76C62.5119 26.512 63.2159 26.888 64.1279 26.888C65.0719 26.888 65.7839 26.52 66.2639 25.784C66.7439 25.048 66.9839 24.112 66.9839 22.976C66.9839 21.808 66.7519 20.856 66.2879 20.12C65.8239 19.368 65.0959 18.992 64.1039 18.992ZM75.3463 16.832V18.992C75.9063 17.488 76.9303 16.736 78.4183 16.736C78.7543 16.736 79.0263 16.76 79.2343 16.808V19.592C78.8663 19.432 78.4583 19.352 78.0103 19.352C77.2263 19.352 76.5863 19.672 76.0903 20.312C75.5943 20.952 75.3463 21.752 75.3463 22.712V29H72.4423L72.4663 16.832H75.3463ZM84.4312 18.992V25.184C84.4312 25.696 84.5672 26.088 84.8392 26.36C85.1112 26.616 85.4872 26.744 85.9672 26.744C86.5752 26.744 87.1352 26.576 87.6472 26.24V28.712C87.0872 28.984 86.3672 29.12 85.4872 29.12C82.8632 29.12 81.5512 27.792 81.5512 25.136V18.992H79.7272V16.832H81.5512V13.904H84.4312V16.832H87.4552V18.992H84.4312ZM90.1409 29V16.832H93.0209V29H90.1409ZM89.8529 13.184C89.8529 12.704 90.0209 12.296 90.3569 11.96C90.6929 11.624 91.1009 11.456 91.5809 11.456C92.0609 11.456 92.4689 11.624 92.8049 11.96C93.1409 12.296 93.3089 12.704 93.3089 13.184C93.3089 13.68 93.1409 14.096 92.8049 14.432C92.4689 14.768 92.0609 14.936 91.5809 14.936C91.1009 14.936 90.6929 14.768 90.3569 14.432C90.0209 14.096 89.8529 13.68 89.8529 13.184ZM103.023 11.984V14.408C102.607 14.248 102.207 14.168 101.823 14.168C100.655 14.168 100.071 14.824 100.071 16.136V16.832H102.495V18.992H100.071V29H97.1913V18.992H95.4153V16.832H97.1913V16.112C97.1913 14.752 97.5673 13.688 98.3193 12.92C99.0713 12.152 100.111 11.768 101.439 11.768C102.047 11.768 102.575 11.84 103.023 11.984ZM108.708 15.656L110.892 11.6H113.916L111.132 15.656H108.708ZM109.62 29.192C107.78 29.192 106.34 28.616 105.3 27.464C104.276 26.312 103.764 24.84 103.764 23.048C103.764 21.192 104.3 19.664 105.372 18.464C106.444 17.248 107.86 16.64 109.62 16.64C111.492 16.64 112.94 17.232 113.964 18.416C114.988 19.584 115.5 21.072 115.5 22.88C115.5 24.72 114.98 26.232 113.94 27.416C112.916 28.6 111.476 29.192 109.62 29.192ZM109.62 18.992C108.708 18.992 108.004 19.368 107.508 20.12C107.028 20.872 106.788 21.816 106.788 22.952C106.788 24.072 107.036 25.008 107.532 25.76C108.028 26.512 108.732 26.888 109.644 26.888C110.588 26.888 111.3 26.52 111.78 25.784C112.26 25.048 112.5 24.112 112.5 22.976C112.5 21.808 112.268 20.856 111.804 20.12C111.34 19.368 110.612 18.992 109.62 18.992ZM118.102 29V12.032H120.982V29H118.102ZM124.336 29V16.832H127.216V29H124.336ZM124.048 13.184C124.048 12.704 124.216 12.296 124.552 11.96C124.888 11.624 125.296 11.456 125.776 11.456C126.256 11.456 126.664 11.624 127 11.96C127.336 12.296 127.504 12.704 127.504 13.184C127.504 13.68 127.336 14.096 127 14.432C126.664 14.768 126.256 14.936 125.776 14.936C125.296 14.936 124.888 14.768 124.552 14.432C124.216 14.096 124.048 13.68 124.048 13.184ZM135.659 29.192C133.819 29.192 132.379 28.616 131.339 27.464C130.315 26.312 129.803 24.84 129.803 23.048C129.803 21.192 130.339 19.664 131.411 18.464C132.483 17.248 133.899 16.64 135.659 16.64C137.531 16.64 138.979 17.232 140.003 18.416C141.027 19.584 141.539 21.072 141.539 22.88C141.539 24.72 141.019 26.232 139.979 27.416C138.955 28.6 137.515 29.192 135.659 29.192ZM135.659 18.992C134.747 18.992 134.043 19.368 133.547 20.12C133.067 20.872 132.827 21.816 132.827 22.952C132.827 24.072 133.075 25.008 133.571 25.76C134.067 26.512 134.771 26.888 135.683 26.888C136.627 26.888 137.339 26.52 137.819 25.784C138.299 25.048 138.539 24.112 138.539 22.976C138.539 21.808 138.307 20.856 137.843 20.12C137.379 19.368 136.651 18.992 135.659 18.992Z" fill="white"/>
</svg>
